<svg width="24" height="25" viewBox="0 0 24 25" fill="none" xmlns="http://www.w3.org/2000/svg">
<g clip-path="url(#clip0_119_59)">
<path d="M9.101 24.191V16.211H6.627V12.544H9.101V10.964C9.101 6.879 10.949 4.986 14.959 4.986C15.36 4.986 15.914 5.028 16.427 5.089C16.8112 5.12854 17.1924 5.19368 17.568 5.284V8.609C17.3509 8.58875 17.133 8.57674 16.915 8.573C16.6707 8.56666 16.4264 8.56366 16.182 8.564C15.475 8.564 14.923 8.66 14.507 8.873C14.2273 9.01331 13.9922 9.22868 13.828 9.495C13.57 9.915 13.454 10.49 13.454 11.247V12.544H17.373L16.987 14.647L16.7 16.211H13.454V24.456C19.396 23.738 24 18.679 24 12.544C24 5.917 18.627 0.543999 12 0.543999C5.373 0.543999 0 5.917 0 12.544C0 18.172 3.874 22.894 9.101 24.191Z" fill="#0866FF"/>
</g>
<defs>
<clipPath id="clip0_119_59">
<rect width="24" height="24" fill="white" transform="translate(0 0.5)"/>
</clipPath>
</defs>
</svg>
