<svg width="24" height="25" viewBox="0 0 24 25" fill="none" xmlns="http://www.w3.org/2000/svg">
<g clip-path="url(#clip0_119_14)">
<path d="M7.03008 0.584017C5.75328 0.644217 4.88138 0.848017 4.11908 1.14742C3.33028 1.45492 2.66158 1.86742 1.99628 2.53512C1.33108 3.20282 0.921282 3.87192 0.616082 4.66212C0.320682 5.42592 0.120482 6.29862 0.0640816 7.57612C0.00768159 8.85362 -0.00481841 9.26432 0.00148159 12.5231C0.00768159 15.7817 0.0220816 16.1902 0.0839816 17.4704C0.144982 18.7469 0.347982 19.6186 0.647482 20.3811C0.955482 21.17 1.36748 21.8384 2.03548 22.5039C2.70338 23.1694 3.37198 23.5782 4.16398 23.8839C4.92718 24.1789 5.80008 24.38 7.07738 24.4359C8.35468 24.4919 8.76578 24.5049 12.0236 24.4986C15.2814 24.4924 15.6916 24.4779 16.9714 24.4172C18.2514 24.3565 19.1184 24.152 19.8812 23.8539C20.6701 23.5453 21.339 23.1339 22.004 22.4658C22.669 21.7976 23.0785 21.128 23.3835 20.3374C23.6792 19.5742 23.8801 18.7014 23.9355 17.425C23.9915 16.1441 24.0047 15.7352 23.9985 12.477C23.9922 9.21872 23.9775 8.81022 23.9168 7.53052C23.8561 6.25082 23.6528 5.38182 23.3535 4.61882C23.0451 3.82992 22.6335 3.16202 21.9659 2.49602C21.2982 1.83002 20.628 1.42082 19.8378 1.11652C19.074 0.821017 18.2017 0.619717 16.9244 0.564517C15.6471 0.509317 15.236 0.495017 11.977 0.501417C8.71798 0.507617 8.30998 0.521617 7.03008 0.584017ZM7.17028 22.2771C6.00028 22.2262 5.36498 22.0318 4.94158 21.8691C4.38098 21.6531 3.98158 21.392 3.55968 20.9741C3.13768 20.5563 2.87858 20.1555 2.65968 19.5961C2.49528 19.1727 2.29728 18.5381 2.24258 17.3681C2.18308 16.1036 2.17058 15.7239 2.16358 12.5201C2.15658 9.31642 2.16888 8.93712 2.22428 7.67212C2.27428 6.50312 2.46988 5.86712 2.63228 5.44392C2.84828 4.88262 3.10848 4.48392 3.52728 4.06232C3.94608 3.64062 4.34568 3.38092 4.90558 3.16202C5.32858 2.99692 5.96308 2.80062 7.13258 2.74492C8.39808 2.68492 8.77728 2.67292 11.9806 2.66592C15.1839 2.65892 15.5641 2.67092 16.8301 2.72672C17.9991 2.77752 18.6354 2.97122 19.0581 3.13472C19.6189 3.35072 20.0181 3.61012 20.4397 4.02972C20.8614 4.44912 21.1213 4.84732 21.3402 5.40842C21.5055 5.83012 21.7019 6.46442 21.7571 7.63472C21.8173 8.90022 21.831 9.27972 21.8367 12.4827C21.8425 15.6857 21.8312 16.0661 21.7757 17.3307C21.7247 18.5007 21.5307 19.1362 21.3677 19.5601C21.1517 20.1205 20.8914 20.5201 20.4723 20.9415C20.0533 21.363 19.6542 21.6226 19.094 21.8415C18.6716 22.0064 18.0363 22.2032 16.8678 22.2589C15.6022 22.3184 15.223 22.3309 12.0185 22.3379C8.81398 22.3449 8.43578 22.3319 7.17028 22.2771ZM16.953 6.08642C16.9535 6.37125 17.0384 6.64954 17.197 6.88609C17.3557 7.12265 17.5809 7.30684 17.8443 7.41537C18.1076 7.52391 18.3972 7.55191 18.6765 7.49583C18.9557 7.43975 19.2121 7.30212 19.4131 7.10034C19.6141 6.89855 19.7508 6.64169 19.8058 6.36222C19.8609 6.08276 19.8318 5.79325 19.7223 5.53032C19.6128 5.26739 19.4277 5.04284 19.1906 4.88508C18.9534 4.72731 18.6748 4.64342 18.39 4.64402C18.0082 4.64481 17.6423 4.79721 17.3728 5.06769C17.1034 5.33818 16.9523 5.70461 16.953 6.08642ZM5.83848 12.512C5.84518 15.9152 8.60908 18.6677 12.0115 18.6613C15.4141 18.6548 18.1685 15.8912 18.1621 12.488C18.1556 9.08482 15.3911 6.33152 11.9881 6.33822C8.58508 6.34492 5.83208 9.10922 5.83848 12.512ZM7.99998 12.5077C7.99842 11.7166 8.23149 10.9428 8.66971 10.2841C9.10793 9.62546 9.73163 9.11154 10.4619 8.80735C11.1922 8.50315 11.9963 8.42234 12.7726 8.57514C13.5488 8.72794 14.2623 9.10749 14.8228 9.66578C15.3833 10.2241 15.7657 10.936 15.9216 11.7117C16.0774 12.4873 15.9998 13.2917 15.6985 14.0232C15.3972 14.7547 14.8858 15.3804 14.2289 15.8213C13.572 16.2621 12.7991 16.4982 12.008 16.4998C11.4827 16.5009 10.9623 16.3985 10.4766 16.1985C9.99082 15.9985 9.54925 15.7047 9.17706 15.334C8.80487 14.9633 8.50935 14.5229 8.30739 14.0379C8.10542 13.553 8.00097 13.033 7.99998 12.5077Z" fill="#E4405F"/>
</g>
<defs>
<clipPath id="clip0_119_14">
<rect width="24" height="24" fill="white" transform="translate(0 0.5)"/>
</clipPath>
</defs>
</svg>
