<svg width="24" height="25" viewBox="0 0 24 25" fill="none" xmlns="http://www.w3.org/2000/svg">
<g clip-path="url(#clip0_119_29)">
<path d="M23 12.5C23 18.5751 18.0751 23.5 12 23.5M23 12.5C23 6.42487 18.0751 1.5 12 1.5M23 12.5H1M12 23.5C5.92487 23.5 1 18.5751 1 12.5M12 23.5C9.17546 20.5342 7.6 16.5956 7.6 12.5C7.6 8.40441 9.17546 4.46577 12 1.5M12 23.5C14.8245 20.5342 16.4 16.5956 16.4 12.5C16.4 8.40441 14.8245 4.46577 12 1.5M1 12.5C1 6.42487 5.92487 1.5 12 1.5" stroke="#3D68FF" stroke-width="2" stroke-linecap="round" stroke-linejoin="round"/>
</g>
<defs>
<clipPath id="clip0_119_29">
<rect width="24" height="24" fill="white" transform="translate(0 0.5)"/>
</clipPath>
</defs>
</svg>
