<svg width="220" height="222" viewBox="0 0 220 222" fill="none" xmlns="http://www.w3.org/2000/svg">
<g clip-path="url(#clip0_20_112)">
<path d="M108.69 0.00181583C99.6185 0.0438854 90.9554 0.816062 83.3328 2.16228C60.8774 6.12174 56.8004 14.4092 56.8004 29.6928V49.8777H109.865V56.606H56.8004H36.8856C21.4635 56.606 7.95952 65.8577 3.73563 83.4575C-1.13657 103.631 -1.35268 116.22 3.73563 137.284C7.50766 152.963 16.5158 164.135 31.9379 164.135H50.1828V139.938C50.1828 122.457 65.3371 107.037 83.3328 107.037H136.336C151.09 107.037 162.868 94.9128 162.868 80.1242V29.6928C162.868 15.3397 150.736 4.55775 136.336 2.16228C127.22 0.647782 117.762 -0.0402543 108.69 0.00181583ZM79.993 16.2362C85.4743 16.2362 89.9504 20.7766 89.9504 26.3595C89.9504 31.9225 85.4743 36.4211 79.993 36.4211C74.4922 36.4211 70.0357 31.9225 70.0357 26.3595C70.0357 20.7766 74.4922 16.2362 79.993 16.2362Z" fill="#3D68FF"/>
<path d="M169.486 56.606V80.1242C169.486 98.3576 153.997 113.704 136.336 113.704H83.3327C68.8143 113.704 56.8003 126.106 56.8003 140.617V191.049C56.8003 205.402 69.3054 213.844 83.3327 217.962C100.13 222.891 116.238 223.782 136.336 217.962C149.695 214.101 162.868 206.332 162.868 191.049V170.864H109.865V164.135H162.868H189.4C204.822 164.135 210.569 153.399 215.933 137.284C221.473 120.694 221.237 104.74 215.933 83.4575C212.121 68.1344 204.842 56.606 189.4 56.606H169.486ZM139.675 184.32C145.176 184.32 149.633 188.819 149.633 194.382C149.633 199.965 145.176 204.505 139.675 204.505C134.194 204.505 129.718 199.965 129.718 194.382C129.718 188.819 134.194 184.32 139.675 184.32Z" fill="#FFC846"/>
</g>
<defs>
<clipPath id="clip0_20_112">
<rect width="220" height="222" fill="white"/>
</clipPath>
</defs>
</svg>
