<svg width="129" height="41" viewBox="0 0 129 41" fill="none" xmlns="http://www.w3.org/2000/svg">
<g clip-path="url(#clip0_20_29)">
<path d="M20.3035 4.00027C18.9428 4.00652 17.6433 4.12131 16.4999 4.32142C13.1316 4.90999 12.5201 6.14191 12.5201 8.41379V11.4143H20.4798V12.4144H12.5201H9.53285C7.21953 12.4144 5.19393 13.7897 4.56034 16.4058C3.82951 19.4046 3.7971 21.2759 4.56034 24.4071C5.12615 26.7378 6.47737 28.3985 8.79068 28.3985H11.5274V24.8016C11.5274 22.2031 13.8006 19.911 16.4999 19.911H24.4503C26.6635 19.911 28.4302 18.1087 28.4302 15.9104V8.41379C28.4302 6.28023 26.6104 4.6775 24.4503 4.32142C23.083 4.09629 21.6642 3.99402 20.3035 4.00027ZM15.999 6.41348C16.8211 6.41348 17.4926 7.08842 17.4926 7.9183C17.4926 8.74524 16.8211 9.41394 15.999 9.41394C15.1738 9.41394 14.5053 8.74524 14.5053 7.9183C14.5053 7.08842 15.1738 6.41348 15.999 6.41348Z" fill="#3D68FF"/>
<path d="M29.4229 12.4144V15.9104C29.4229 18.6207 27.0996 20.902 24.4504 20.902H16.4999C14.3222 20.902 12.5201 22.7455 12.5201 24.9026V32.3991C12.5201 34.5327 14.3959 35.7876 16.4999 36.3998C19.0195 37.1325 21.4357 37.265 24.4504 36.3998C26.4543 35.8259 28.4302 34.671 28.4302 32.3991V29.3987H20.4798V28.3985H28.4302H32.4101C34.7234 28.3985 35.5854 26.8026 36.3899 24.4071C37.221 21.941 37.1856 19.5694 36.3899 16.4059C35.8182 14.1281 34.7263 12.4144 32.4101 12.4144H29.4229ZM24.9513 31.399C25.7765 31.399 26.4449 32.0677 26.4449 32.8946C26.4449 33.7245 25.7765 34.3995 24.9513 34.3995C24.1292 34.3995 23.4577 33.7245 23.4577 32.8946C23.4577 32.0677 24.1292 31.399 24.9513 31.399Z" fill="#FFC846"/>
</g>
<path d="M49.976 11.044L53.992 16.5H51.136L47.888 11.884V16.5H45.496V5.94H47.888V10.26L50.88 5.94H53.576L49.976 11.044ZM56.4205 13.732C56.4365 13.9667 56.5112 14.1747 56.6445 14.356C56.7778 14.5373 56.9618 14.6813 57.1965 14.788C57.4365 14.8893 57.7192 14.94 58.0445 14.94C58.3538 14.94 58.6312 14.908 58.8765 14.844C59.1272 14.78 59.3432 14.7 59.5245 14.604C59.7112 14.508 59.8552 14.4093 59.9565 14.308L60.9005 15.812C60.7672 15.956 60.5778 16.0973 60.3325 16.236C60.0925 16.3693 59.7752 16.4787 59.3805 16.564C58.9858 16.6493 58.4872 16.692 57.8845 16.692C57.1592 16.692 56.5138 16.556 55.9485 16.284C55.3832 16.012 54.9378 15.612 54.6125 15.084C54.2872 14.556 54.1245 13.9107 54.1245 13.148C54.1245 12.508 54.2632 11.932 54.5405 11.42C54.8232 10.9027 55.2312 10.4947 55.7645 10.196C56.2978 9.892 56.9405 9.74 57.6925 9.74C58.4072 9.74 59.0258 9.87067 59.5485 10.132C60.0765 10.3933 60.4818 10.7827 60.7645 11.3C61.0525 11.812 61.1965 12.452 61.1965 13.22C61.1965 13.2627 61.1938 13.348 61.1885 13.476C61.1885 13.604 61.1832 13.6893 61.1725 13.732H56.4205ZM58.9085 12.46C58.9032 12.2893 58.8578 12.1213 58.7725 11.956C58.6872 11.7853 58.5592 11.6467 58.3885 11.54C58.2178 11.428 57.9992 11.372 57.7325 11.372C57.4658 11.372 57.2392 11.4253 57.0525 11.532C56.8712 11.6333 56.7325 11.7667 56.6365 11.932C56.5405 12.0973 56.4872 12.2733 56.4765 12.46H58.9085ZM64.8853 16.5H62.4453V5.492H64.8853V16.5ZM69.7973 16.692C69.0773 16.692 68.4373 16.5453 67.8773 16.252C67.3226 15.9533 66.8853 15.5453 66.5653 15.028C66.2506 14.5053 66.0933 13.908 66.0933 13.236C66.0933 12.564 66.2506 11.9667 66.5653 11.444C66.8853 10.916 67.3226 10.5 67.8773 10.196C68.4373 9.892 69.0773 9.74 69.7973 9.74C70.5173 9.74 71.1519 9.892 71.7013 10.196C72.2506 10.5 72.6799 10.916 72.9893 11.444C73.2986 11.9667 73.4533 12.564 73.4533 13.236C73.4533 13.908 73.2986 14.5053 72.9893 15.028C72.6799 15.5453 72.2506 15.9533 71.7013 16.252C71.1519 16.5453 70.5173 16.692 69.7973 16.692ZM69.7973 14.692C70.0746 14.692 70.3146 14.6307 70.5173 14.508C70.7199 14.3853 70.8773 14.212 70.9893 13.988C71.1013 13.764 71.1573 13.5107 71.1573 13.228C71.1573 12.94 71.1013 12.684 70.9893 12.46C70.8773 12.236 70.7199 12.06 70.5173 11.932C70.3146 11.804 70.0746 11.74 69.7973 11.74C69.5199 11.74 69.2773 11.804 69.0693 11.932C68.8666 12.06 68.7066 12.236 68.5893 12.46C68.4773 12.684 68.4213 12.94 68.4213 13.228C68.4213 13.5107 68.4773 13.764 68.5893 13.988C68.7066 14.212 68.8666 14.3853 69.0693 14.508C69.2773 14.6307 69.5199 14.692 69.7973 14.692ZM83.7509 9.74C84.2469 9.74 84.6842 9.844 85.0629 10.052C85.4415 10.2547 85.7375 10.5693 85.9509 10.996C86.1695 11.4227 86.2789 11.972 86.2789 12.644V16.5H83.8869V13.012C83.8869 12.5533 83.8175 12.1827 83.6789 11.9C83.5402 11.6173 83.2655 11.476 82.8549 11.476C82.6095 11.476 82.3935 11.54 82.2069 11.668C82.0202 11.796 81.8762 11.9747 81.7749 12.204C81.6735 12.428 81.6229 12.6973 81.6229 13.012V16.5H79.3909V13.012C79.3909 12.5533 79.3135 12.1827 79.1589 11.9C79.0095 11.6173 78.7429 11.476 78.3589 11.476C78.1135 11.476 77.8975 11.54 77.7109 11.668C77.5242 11.7907 77.3802 11.9667 77.2789 12.196C77.1829 12.42 77.1349 12.692 77.1349 13.012V16.5H74.7189V9.932H77.1349V10.868C77.1989 10.7027 77.3375 10.5347 77.5509 10.364C77.7695 10.188 78.0389 10.0413 78.3589 9.924C78.6789 9.80133 79.0175 9.74 79.3749 9.74C79.7642 9.74 80.0895 9.79867 80.3509 9.916C80.6122 10.028 80.8255 10.18 80.9909 10.372C81.1615 10.564 81.2975 10.772 81.3989 10.996C81.4735 10.804 81.6202 10.612 81.8389 10.42C82.0629 10.2227 82.3402 10.06 82.6709 9.932C83.0069 9.804 83.3669 9.74 83.7509 9.74ZM90.0796 19.828H87.6716V9.932H90.1036V10.892C90.1783 10.7427 90.3196 10.58 90.5276 10.404C90.741 10.2227 91.0103 10.068 91.3356 9.94C91.6663 9.80667 92.0396 9.74 92.4556 9.74C93.0956 9.74 93.6423 9.89733 94.0956 10.212C94.5543 10.5267 94.9063 10.948 95.1516 11.476C95.397 11.9987 95.5196 12.58 95.5196 13.22C95.5196 13.86 95.389 14.444 95.1276 14.972C94.8663 15.4947 94.4983 15.9133 94.0236 16.228C93.5543 16.5373 92.9996 16.692 92.3596 16.692C91.901 16.692 91.509 16.612 91.1836 16.452C90.8636 16.2867 90.6103 16.1053 90.4236 15.908C90.2423 15.7053 90.1276 15.548 90.0796 15.436V19.828ZM93.1436 13.22C93.1436 12.9213 93.077 12.6547 92.9436 12.42C92.8103 12.18 92.629 11.9933 92.3996 11.86C92.1756 11.7213 91.9223 11.652 91.6396 11.652C91.3463 11.652 91.0823 11.7213 90.8476 11.86C90.6183 11.9933 90.437 12.18 90.3036 12.42C90.1703 12.6547 90.1036 12.9213 90.1036 13.22C90.1036 13.5187 90.1703 13.788 90.3036 14.028C90.437 14.2627 90.6183 14.4467 90.8476 14.58C91.0823 14.7133 91.3463 14.78 91.6396 14.78C91.9223 14.78 92.1756 14.7133 92.3996 14.58C92.629 14.4467 92.8103 14.2627 92.9436 14.028C93.077 13.788 93.1436 13.5187 93.1436 13.22ZM100.094 16.692C99.3741 16.692 98.7341 16.5453 98.1741 16.252C97.6195 15.9533 97.1821 15.5453 96.8621 15.028C96.5475 14.5053 96.3901 13.908 96.3901 13.236C96.3901 12.564 96.5475 11.9667 96.8621 11.444C97.1821 10.916 97.6195 10.5 98.1741 10.196C98.7341 9.892 99.3741 9.74 100.094 9.74C100.814 9.74 101.449 9.892 101.998 10.196C102.547 10.5 102.977 10.916 103.286 11.444C103.595 11.9667 103.75 12.564 103.75 13.236C103.75 13.908 103.595 14.5053 103.286 15.028C102.977 15.5453 102.547 15.9533 101.998 16.252C101.449 16.5453 100.814 16.692 100.094 16.692ZM100.094 14.692C100.371 14.692 100.611 14.6307 100.814 14.508C101.017 14.3853 101.174 14.212 101.286 13.988C101.398 13.764 101.454 13.5107 101.454 13.228C101.454 12.94 101.398 12.684 101.286 12.46C101.174 12.236 101.017 12.06 100.814 11.932C100.611 11.804 100.371 11.74 100.094 11.74C99.8168 11.74 99.5741 11.804 99.3661 11.932C99.1635 12.06 99.0035 12.236 98.8861 12.46C98.7741 12.684 98.7181 12.94 98.7181 13.228C98.7181 13.5107 98.7741 13.764 98.8861 13.988C99.0035 14.212 99.1635 14.3853 99.3661 14.508C99.5741 14.6307 99.8168 14.692 100.094 14.692ZM109.496 9.932H112.248L109.152 13.068L112.568 16.5H109.752L107.216 13.86V16.5H104.784V5.492H107.216V12.22L109.496 9.932ZM45.68 20.94H49.52C50.1973 20.94 50.808 21.06 51.352 21.3C51.896 21.5347 52.328 21.8947 52.648 22.38C52.9733 22.86 53.136 23.4627 53.136 24.188C53.136 24.908 52.9733 25.5213 52.648 26.028C52.328 26.5293 51.896 26.9133 51.352 27.18C50.808 27.4413 50.1973 27.572 49.52 27.572H48.072V31.5H45.68V20.94ZM48.072 25.684H48.856C49.1813 25.684 49.472 25.636 49.728 25.54C49.9893 25.444 50.1973 25.292 50.352 25.084C50.5067 24.8707 50.584 24.5907 50.584 24.244C50.584 23.892 50.5067 23.6147 50.352 23.412C50.1973 23.204 49.9893 23.0547 49.728 22.964C49.472 22.8733 49.1813 22.828 48.856 22.828H48.072V25.684ZM57.8278 29.396L59.6038 24.932H61.9878L57.4758 34.828H55.0438L56.5638 31.5L53.8197 24.932H56.2438L57.8278 29.396ZM62.1901 24.932H63.3101V22.236H65.7181V24.932H67.1901V26.932H65.7181V28.764C65.7181 29.036 65.7581 29.2573 65.8381 29.428C65.9181 29.5933 66.0648 29.676 66.2781 29.676C66.4221 29.676 66.5448 29.644 66.6461 29.58C66.7475 29.516 66.8088 29.4733 66.8301 29.452L67.6621 31.18C67.6248 31.212 67.5075 31.2707 67.3101 31.356C67.1181 31.4413 66.8728 31.5187 66.5741 31.588C66.2755 31.6573 65.9421 31.692 65.5741 31.692C64.9181 31.692 64.3768 31.508 63.9501 31.14C63.5235 30.7667 63.3101 30.1933 63.3101 29.42V26.932H62.1901V24.932ZM73.1386 24.74C73.5973 24.74 74.0453 24.8333 74.4826 25.02C74.92 25.2067 75.28 25.5027 75.5626 25.908C75.8453 26.308 75.9866 26.836 75.9866 27.492V31.5H73.5546V27.892C73.5546 27.4227 73.448 27.0707 73.2346 26.836C73.0266 26.596 72.7413 26.476 72.3786 26.476C72.1386 26.476 71.9093 26.54 71.6906 26.668C71.472 26.7907 71.2933 26.9667 71.1546 27.196C71.0213 27.42 70.9546 27.6787 70.9546 27.972V31.5H68.5146V20.492H70.9546V25.9C71.0133 25.724 71.144 25.548 71.3466 25.372C71.5546 25.1907 71.8133 25.0413 72.1226 24.924C72.4373 24.8013 72.776 24.74 73.1386 24.74ZM80.766 31.692C80.046 31.692 79.406 31.5453 78.846 31.252C78.2913 30.9533 77.854 30.5453 77.534 30.028C77.2193 29.5053 77.062 28.908 77.062 28.236C77.062 27.564 77.2193 26.9667 77.534 26.444C77.854 25.916 78.2913 25.5 78.846 25.196C79.406 24.892 80.046 24.74 80.766 24.74C81.486 24.74 82.1207 24.892 82.67 25.196C83.2193 25.5 83.6487 25.916 83.958 26.444C84.2673 26.9667 84.422 27.564 84.422 28.236C84.422 28.908 84.2673 29.5053 83.958 30.028C83.6487 30.5453 83.2193 30.9533 82.67 31.252C82.1207 31.5453 81.486 31.692 80.766 31.692ZM80.766 29.692C81.0433 29.692 81.2833 29.6307 81.486 29.508C81.6887 29.3853 81.846 29.212 81.958 28.988C82.07 28.764 82.126 28.5107 82.126 28.228C82.126 27.94 82.07 27.684 81.958 27.46C81.846 27.236 81.6887 27.06 81.486 26.932C81.2833 26.804 81.0433 26.74 80.766 26.74C80.4887 26.74 80.246 26.804 80.038 26.932C79.8353 27.06 79.6753 27.236 79.558 27.46C79.446 27.684 79.39 27.94 79.39 28.228C79.39 28.5107 79.446 28.764 79.558 28.988C79.6753 29.212 79.8353 29.3853 80.038 29.508C80.246 29.6307 80.4887 29.692 80.766 29.692ZM90.2076 24.74C90.6663 24.74 91.1143 24.8333 91.5516 25.02C91.989 25.2067 92.349 25.5027 92.6316 25.908C92.9143 26.308 93.0556 26.836 93.0556 27.492V31.5H90.6156V27.892C90.6156 27.4227 90.5036 27.0707 90.2796 26.836C90.0556 26.596 89.7623 26.476 89.3996 26.476C89.1596 26.476 88.933 26.54 88.7196 26.668C88.5116 26.7907 88.341 26.9667 88.2076 27.196C88.0796 27.42 88.0156 27.6787 88.0156 27.972V31.5H85.5836V24.932H88.0156V25.9C88.0796 25.724 88.213 25.548 88.4156 25.372C88.6236 25.1907 88.8823 25.0413 89.1916 24.924C89.5063 24.8013 89.845 24.74 90.2076 24.74Z" fill="#021639"/>
<defs>
<clipPath id="clip0_20_29">
<rect width="33" height="33" fill="white" transform="translate(4 4)"/>
</clipPath>
</defs>
</svg>
